<?xml version="1.0" encoding="utf-8"?>
<!-- Generator: Adobe Illustrator 25.2.1, SVG Export Plug-In . SVG Version: 6.00 Build 0)  -->
<svg version="1.1" id="Слой_1" xmlns="http://www.w3.org/2000/svg" xmlns:xlink="http://www.w3.org/1999/xlink" x="0px" y="0px"
	 viewBox="0 0 480 360" style="enable-background:new 0 0 480 360;" xml:space="preserve">
<style type="text/css">
	.st0{display:none;}
	.st1{display:inline;}
	.st2{fill:#E2C9C3;}
	.st3{display:inline;fill:#C9AFA9;}
	.st4{display:inline;fill:#E2C9C3;}
	.st5{fill:#E0B9CA;}
	.st6{fill:#C49DAF;}
</style>
<g id="Слой_1_1_" class="st0">
	<g class="st1">
		<rect class="st2" width="480" height="360"/>
	</g>
	<path class="st3" d="M155,360H0c21.1-49.9,49.3-80.5,71-99c97.5-83.1,257.5-84.9,409-11c0,36.7,0,73.3,0,110
		C371.7,360,263.3,360,155,360z"/>
	<path class="st4" d="M480,360H301c-91,0-182,0-273,0c18.8-29.7,56.6-78.7,121-109c159-74.8,322.8,39.1,331,45
		C480,317.3,480,338.7,480,360z"/>
	<path class="st3" d="M191.6,360H54c24.7-25.3,66.5-60.6,127-82c145.2-51.3,276,20.8,299,34c0,16,0,32,0,48
		C383.9,360,287.7,360,191.6,360z"/>
	<path class="st3" d="M0,38C0,25.3,0,12.7,0,0c27,28.1,54.3,46.1,78,58c173.9,87.3,378.6-42.6,402-58c0,17.3,0,34.7,0,52
		c-33.5,20.7-134.3,76.7-270,64C106.7,106.4,33.5,61.6,0,38z"/>
	<path class="st3" d="M0,77c6.5,11,17.7,27.1,36,41c45.3,34.5,85.7,18,198,21c104.4,2.8,132.1,18.6,185-5c28.5-12.7,48.7-29.9,61-42
		c0,42,0,84,0,126c-10.8-10-27.7-23.4-51-34c-17.1-7.8-31.7-11.4-44-14c-101.2-21.2-175-14-175-14c-68.2,6.6-111.3,10.8-152,44
		c-33.7,27.4-50,61.9-58,84C0,215,0,146,0,77z"/>
	<path class="st3" d="M405,0c-56.3,18.3-145.6,38.4-253,26C107.1,20.8,67.8,10.9,35,0C158.3,0,281.7,0,405,0z"/>
	<path class="st4" d="M0,203c29.4-7.5,48.9-23.9,48-38c-0.7-11.1-14.1-21.1-26-30c-8.4-6.2-16.2-10.4-22-13C0,149,0,176,0,203z"/>
	<path class="st4" d="M480.1,196c-46.4-19.8-56.3-31.1-55.1-38c1.1-6.3,11.4-7.8,30-21c11.2-8,19.5-16,25.1-22
		C480.1,142,480.1,169,480.1,196z"/>
	<path class="st4" d="M480,360c-27.3-4.7-68.6-13-118-28c-57.5-17.4-73-27.9-102-31c-35.4-3.8-87.7,3.7-157,59
		C228.7,360,354.3,360,480,360z"/>
	<path class="st3" d="M353,360c-58.3,0-116.7,0-175,0c2.5-4,6.6-9.7,13-15c15-12.5,32.1-14.1,42-15C279.1,325.7,348.1,357.7,353,360
		z"/>
</g>
<g id="Слой_2_1_">
	<rect class="st5" width="480" height="360"/>
</g>
<g id="Слой_4">
	<path class="st6" d="M0,88.9c0-12.7,0-25.3,0-38C27,79,54.3,97,78,108.9c173.9,87.3,378.6-42.6,402-58c0,17.3,0,34.7,0,52
		c-33.5,20.7-134.3,76.7-270,64C106.7,157.2,33.5,112.5,0,88.9z"/>
	<path class="st6" d="M235,67C139.7,68.9,78.7,10.6,68,0c108.3,0,216.7,0,325,0C381.2,11.7,324.5,65.3,235,67z"/>
	<path class="st6" d="M480,360H0c0-10.3,0-20.7,0-31c11.4-4.6,28.6-10.4,50-13c42.5-5.2,69.1,5.9,104,13c25.5,5.2,84.3,17.1,143,0
		c56.4-16.4,70.2-47.2,124-49c25.2-0.8,45.9,5.1,59,10C480,313.3,480,336.7,480,360z"/>
</g>
</svg>
